<?xml version="1.0" encoding="utf-8"?>
<!-- Generator: Adobe Illustrator 23.0.3, SVG Export Plug-In . SVG Version: 6.00 Build 0)  -->
<svg version="1.1" id="Layer_1" xmlns="http://www.w3.org/2000/svg" xmlns:xlink="http://www.w3.org/1999/xlink" x="0px" y="0px"
	 viewBox="0 0 25 25" style="enable-background:new 0 0 25 25;" xml:space="preserve">
<style type="text/css">
	.st0{fill:#FFFFFF;}
</style>
<g>
	<path class="st0" d="M5.1,23c0,1.1,0.9,2,2,2s2-0.9,2-2s-0.9-2-2-2S5.1,21.9,5.1,23z M17.1,23c0,1.1,0.9,2,2,2s1.9-0.9,1.9-2
		s-0.8-2-1.9-2S17.1,21.9,17.1,23z M0,1c0,0.6,0.4,1,1,1h1.1L3,5.3L5.1,13c0,0.1,0,0.1,0,0.2l-1,4.6c-0.1,0.3,0,0.6,0.2,0.8
		C4.5,18.9,4.8,19,5.1,19h16.7c0.6,0,1-0.4,1-1s-0.4-1-1-1H6.3l0.5-2.1C6.9,15,7,15,7.1,15h12.3c1.1,0,1.7-0.2,2.2-1.5l3.2-7
		C25.4,4.7,24.2,4,23.1,4h-18C4.9,4,4.8,4.1,4.6,4.1L3.8,0.8C3.7,0.3,3.3,0,2.9,0H1C0.4,0,0,0.4,0,1z M5.1,6h17.8l-3.2,6.8
		c0,0.1-0.1,0.1-0.1,0.2c-0.1,0-0.1,0-0.3,0H7.1v-0.2l0-0.2L5.1,6z"/>
</g>
</svg>
